PathFileType	4	(X/Y/Z)	pose2sim_tools_200-690.trc
DataRate	CameraRate	NumFrames	NumMarkers	Units	OrigDataRate	OrigDataStartFrame	OrigNumFrames
29	29	9	22	m	29	445	690
Frame#	Time	Hip			RHip			RKnee			RAnkle			RBigToe			RSmallToe			RHeel			LHip			LKnee			LAnkle			LBigToe			LSmallToe			LHeel			Neck			Head			Nose			RShoulder			RElbow			RWrist			LShoulder			LElbow			LWrist			
		X1	Y1	Z1	X2	Y2	Z2	X3	Y3	Z3	X4	Y4	Z4	X5	Y5	Z5	X6	Y6	Z6	X7	Y7	Z7	X8	Y8	Z8	X9	Y9	Z9	X10	Y10	Z10	X11	Y11	Z11	X12	Y12	Z12	X13	Y13	Z13	X14	Y14	Z14	X15	Y15	Z15	X16	Y16	Z16	X17	Y17	Z17	X18	Y18	Z18	X19	Y19	Z19	X20	Y20	Z20	X21	Y21	Z21	X22	Y22	Z22	
445	15.344827586206897	-7.133479756364516	0.5323037204930336	0.025670944026199963	-7.166774397004345	0.5260891012073928	0.11188320617257694	-7.202214398577102	0.17444705945870984	0.07692928731062687	-7.210547199056386	-0.1608192973340397	0.03695623727460395	-7.049299917767604	-0.23911702121754752	0.038781189456137295	-7.072090381768143	-0.23822586628900635	0.08887919449568014	-7.264232632865866	-0.221773060608421	0.017497333477658045	-7.11047840899731	0.5245959063866745	-0.06178705546050638	-7.011861671619428	0.19585309590778713	-0.07752286985752364	-7.121311892959691	-0.15193188789801093	-0.10373725537232552	-6.988786453376352	-0.23781255631024523	-0.11601226264872899	-7.01425186246017	-0.22990047241020725	-0.16112132600281664	-7.1865901620751345	-0.20606076025323042	-0.09666498072547523	-7.067762430733578	1.0981268697640658	0.010183497920981475	-7.035213590225053	1.3567907717339998	-0.003630184533935623	-6.889673757195833	1.2067034645737036	0.009954233855901334	-7.104055764023176	1.0015196588423636	0.16970731848656748	-7.1793382170056566	0.7820177101049863	0.26845069162280627	-7.087058062203787	0.5632674268286284	0.31253902542282475	-7.122095945469071	0.9852564801074772	-0.13717866110325072	-7.141593741314954	0.7476682220054961	-0.20943170045057208	-7.107271675829473	0.5206507440899124	-0.2606387787911408
446	15.379310344827585	-7.129550183439008	0.5297254574717155	0.026316833420322622	-7.148932829479328	0.524692561270164	0.10999493836012714	-7.184739441332252	0.17405184645124297	0.0751518687395556	-7.206570656635796	-0.16150265231403688	0.037549033712235814	-7.045529579375725	-0.2375586752067021	0.03941726910278565	-7.081125755723961	-0.23789276049666921	0.08762514868672244	-7.274175023493366	-0.22144510601424464	0.01617004627733639	-7.094176427227734	0.5190986623807262	-0.0632330577279138	-6.983622594386248	0.19757430966685943	-0.076974909415009	-7.105678672489675	-0.14772489652207876	-0.10934316974098061	-6.973665030123873	-0.23515275782976222	-0.11735290449673405	-6.9866721819053375	-0.2240625225220425	-0.1645180713267071	-7.183961730194593	-0.2024702590318652	-0.10007469409109802	-7.051329119416176	1.0940104317226875	0.004403559030915049	-7.018706530832924	1.3562469599038158	-0.005210941974281697	-6.861167725592849	1.2053262313816155	0.006162726847415647	-7.08643412696197	0.9973556689898451	0.16355657030830992	-7.1608966526347455	0.7800181428310909	0.26206917022446063	-7.068612466514166	0.5599909426896954	0.3061111468579159	-7.119578929811402	0.981947383439873	-0.14057750211588965	-7.139647313545264	0.744298887029721	-0.21276639919064447	-7.105895944024643	0.5152986306535667	-0.2597460449065537
447	15.413793103448276	-7.1107042518443	0.528846696607814	0.024868552343084546	-7.134016198082064	0.5238127777591609	0.10846245249401024	-7.181074553275513	0.17314086131771506	0.07611202296865072	-7.214370219303531	-0.16061598268898836	0.036730990873068074	-7.066407665977967	-0.2394994106401077	0.04074989423176178	-7.07810593524246	-0.23817536734229555	0.08845071137654514	-7.2809155081112245	-0.22001610445789777	0.011216918803352148	-7.084453242076897	0.5203670962255583	-0.06234402969860023	-6.98656878162204	0.19623930672082038	-0.07394471566565153	-7.106551629478917	-0.14856500481249213	-0.10609962403757905	-6.948543674604625	-0.23173255874474977	-0.11858811848193712	-6.98474457505209	-0.2263772439596534	-0.16549674611585666	-7.185179909036234	-0.20303791202244606	-0.09679947125188942	-7.032358683068406	1.0935536076187025	-0.00130986881141503	-7.012629855552087	1.3582420803540627	-0.008729257248290385	-6.843283423918726	1.2043733324932557	0.004372361225180646	-7.07498019733869	0.9976640427231555	0.15776337252844214	-7.167365825916403	0.7774025950037163	0.2547888719199817	-7.051762199009117	0.5591008722044233	0.29365608263944676	-7.092837485000427	0.9795833866274799	-0.14582685589684036	-7.135818355841089	0.7431892984314726	-0.21362495995882463	-7.113131134754384	0.5163722472296345	-0.2585962319056638
448	15.448275862068966	-7.099300105002315	0.5335707411357418	0.023174392870979887	-7.1371770468612015	0.5285157477530554	0.10470783609973752	-7.170004054933361	0.1773529648435343	0.07424016394093196	-7.21563799096828	-0.15977862328315773	0.03746274676565591	-7.055226209877903	-0.2395072506945625	0.03905483635764217	-7.080713650802624	-0.23727005454786654	0.08887451828767487	-7.281616059488206	-0.2166955193892652	0.016184492317476977	-7.084746519042221	0.5250423963205597	-0.06555604253104767	-6.999754574089639	0.19745461238906872	-0.07083764931526701	-7.1061657481425655	-0.1454906441785698	-0.10088077293073627	-6.96110121457548	-0.23137440826718422	-0.11532977911088037	-6.996642448554275	-0.22184275806665624	-0.16214388101300933	-7.171268695680011	-0.1988237022547198	-0.09373559668422274	-7.034064930271946	1.09400899828062	-0.0047527517133673595	-7.001186554879441	1.3569833183015587	-0.01020959936897676	-6.858191521597691	1.2052889036509733	-0.0008145576414571327	-7.066114190758093	1.0004008528560724	0.15550206163216088	-7.133388386341831	0.7782965058221714	0.2470100748767391	-7.0589871285421175	0.5618224095059428	0.28534725620861184	-7.091653018197023	0.9805837075953466	-0.148752112679587	-7.1332033247061855	0.7451484655550656	-0.2162335641026755	-7.096950020635404	0.5189212061278451	-0.25888601033402847
449	15.482758620689655	-7.099052488430959	0.5397378864263958	0.022639196483770746	-7.111968657869843	0.5305367682818742	0.10303762585497597	-7.170034848511588	0.1816735840609945	0.07345761311709915	-7.214442384314678	-0.15940613056611663	0.036946425393884444	-7.068105900916996	-0.2435544470337925	0.040824908738445326	-7.094395713903549	-0.239594760278966	0.09045533043530231	-7.279556091308589	-0.21580175418826614	0.01591624624928159	-7.082816881651703	0.5292060901050015	-0.06552960406688767	-7.0107471005982145	0.20136612806909604	-0.07269824115722391	-7.116203538174352	-0.1478962261465851	-0.09835217813624525	-6.958813243232507	-0.23213384012877739	-0.11503731528658326	-6.993100726553716	-0.22296663467892602	-0.16142773554070947	-7.181343443138321	-0.20313914795767204	-0.08700713147784579	-7.008014436736832	1.0970138654775994	-0.009643534156983878	-6.975607022297048	1.3575241935391598	-0.015122215022408302	-6.846834120919484	1.2081455613006804	-0.003588679578521512	-7.055905152509517	1.0028854496276818	0.15174318289784902	-7.137310524252496	0.7788485356161465	0.24527767251498941	-7.07724245564461	0.5617743321608408	0.28195830018142115	-7.074706064283163	0.9809077260672202	-0.15434368256290878	-7.114329955393016	0.7453149800022209	-0.2212926548895394	-7.1032548937375415	0.5149619746536794	-0.26367725071214615
450	15.517241379310345	-7.078703708987397	0.5374889058058984	0.016205628639269463	-7.11924755621384	0.5324481337139797	0.09712691074037591	-7.163512939547649	0.17978659384346024	0.06932187702175853	-7.220572025943784	-0.1617726402132446	0.03936674396642225	-7.087125381423771	-0.2445328721739744	0.03716295112390106	-7.088238578219765	-0.23883714228313038	0.08629355963444761	-7.298707641134177	-0.22099568226737853	0.01653222415723207	-7.0609392154892	0.5290732272472556	-0.07180395597365483	-7.001744473440675	0.19968935825903797	-0.07676633260721118	-7.10694678965945	-0.1492591987487916	-0.09821268055837858	-6.974905404826426	-0.23315014673077217	-0.11479922103074856	-7.008523051847614	-0.22392735884818107	-0.1612297899775331	-7.185403037939844	-0.20731266803526122	-0.08466976835006663	-7.000615332903817	1.0962642938385416	-0.009667509585965534	-6.968177205386995	1.3564404770997383	-0.01927810615095508	-6.8521690472541765	1.2101867260885875	-0.009519220120695051	-7.038362764790584	1.0037438480584093	0.14506093223707134	-7.1341659487679125	0.780218333799435	0.2410745376249481	-7.062186209259927	0.5606143020837658	0.2710683697751821	-7.064488935533393	0.9821053224580348	-0.15834436142491976	-7.116107804409165	0.748843951039837	-0.22318784774728828	-7.091589543924579	0.5182255594506182	-0.2634458903776578
451	15.551724137931034	-7.07412794076787	0.5374277618628036	0.011676862207590226	-7.102676990043076	0.5333522888109591	0.09432594608469977	-7.172762520901006	0.18017055149058994	0.06717523992096253	-7.2296157981658995	-0.15993097029744993	0.03719745496365425	-7.0571832682081626	-0.2399030204370101	0.04025280790673324	-7.084591854921108	-0.2402475284576409	0.09003770928916997	-7.294330777650872	-0.22231416694144046	0.020366173618856606	-7.05555086776208	0.530012492826646	-0.07228485005580988	-7.02188081748857	0.19779508308354712	-0.07693255532448968	-7.101141505268542	-0.15048971840168224	-0.09863412573734061	-6.956772381145558	-0.23387128022236983	-0.10919795570929962	-7.00236446381766	-0.2274856040987697	-0.15755039737457735	-7.192691095179981	-0.2076569763438638	-0.0869602108997777	-6.995923361370401	1.1007624269085938	-0.014196228207427442	-6.950675301391419	1.3539409565494582	-0.02610647835906872	-6.835214195552582	1.2101409313752778	-0.012277678818030005	-7.035589137844517	1.0065377870449197	0.14467646560013225	-7.132555692997369	0.7809031207636948	0.23667506165316907	-7.035234869296149	0.5590831044342678	0.26155573586630737	-7.071001555042521	0.987322603762758	-0.16083546785564345	-7.095634861052031	0.7473891434530044	-0.22566910516537006	-7.083256016671139	0.5173182808259692	-0.2679917720221608
452	15.586206896551724	-7.074903130957622	0.5346466645860497	0.007914069460927984	-7.090091213499533	0.5317800448954534	0.0882050278113549	-7.160226070357102	0.17645415173485487	0.06518318061480065	-7.230689018715327	-0.16006241723625317	0.03742893200058341	-7.045208857193237	-0.23929368742619953	0.04234562318731753	-7.085278939810868	-0.23630827043275773	0.09037443226837083	-7.295847294867988	-0.21619644962859957	0.020544147794150806	-7.056886235272781	0.5303049786959373	-0.07614791172167515	-7.023100148403396	0.1936595317431485	-0.08072039527978875	-7.116136323818158	-0.15346951525390984	-0.096359681150357	-6.9461281066729645	-0.23135136831180714	-0.10714707493643691	-6.992508099248762	-0.22496568900955316	-0.15144525729509845	-7.194619771146054	-0.20802997142494192	-0.08684916145062442	-6.996717623653901	1.1001117706270016	-0.017950979866800477	-6.938670403937272	1.352508960511248	-0.027922410609991368	-6.823288183930006	1.2085382920314645	-0.01807474153392772	-7.048525909371205	1.0062987470374085	0.14348568798114725	-7.132221142560048	0.7801964230662289	0.23304767795340828	-7.0349443969746375	0.558161378539494	0.2539146509933732	-7.034064355006778	0.9827870018977246	-0.16286976094284075	-7.08496172659795	0.7460908761269017	-0.22764092679459288	-7.072856645461631	0.5140287933458402	-0.2699115898672547
453	15.620689655172415	-7.058979468397276	0.535620266736272	0.004694253176908525	-7.0861596817275405	0.53508310048829	0.08314209689560555	-7.156624099044207	0.17971616191387715	0.06004766238513174	-7.227570187132498	-0.15897412904632524	0.0364262232181434	-7.042015724286021	-0.23817291675738378	0.04141379793073019	-7.081358153681782	-0.23930644206561466	0.08946761948611179	-7.2929709280440855	-0.21716365156411094	0.019487443613607425	-7.054775055027507	0.5315717648628924	-0.08117867033139492	-7.021268993120999	0.19286916484928313	-0.08164547881438025	-7.115041752187064	-0.15250156336317836	-0.0932378038972239	-6.9198983500146545	-0.22872949832220407	-0.10424920638799044	-6.979215794471446	-0.22329484343534775	-0.1504322189209678	-7.193391462868799	-0.2093041237823899	-0.08375023091190448	-6.9812193662104	1.1005961538499982	-0.02106488726164441	-6.936144594997302	1.3536863750466475	-0.03292816564470442	-6.8082039987647915	1.2090859298788794	-0.021170731977270367	-7.0309245319803635	1.004714984401294	0.14012457776199866	-7.113332616174342	0.7788741569500794	0.22949949277437415	-7.029120459086168	0.5573750248995587	0.2488881021736416	-7.032978365327614	0.9860520757549999	-0.16793751000254445	-7.097887844278911	0.7497247821870667	-0.23077388279116617	-7.060267572569461	0.5132436699500024	-0.27289392349307123
